<svg xmlns="http://www.w3.org/2000/svg" viewBox="0 0 23 23"><path d="M1 1h7v7h-7zM13 1h1v9h1v-1h5v1h2v1h-1v1h1v1h-1v1h1v1h-1v1h-1v-3h-1v-1h1v-1h-1v1h-1v-1h-2v1h-1v1h-1v-2h-1v-2h-2v1h1v1h1v1h-3v-1h-1v-1h1v-1h-1v-6h1v2h2v-1h-1v-1h1v-1h1zM15 1h7v7h-7zM2 2v5h5v-5zM10 2h1v1h-1zM16 2v5h5v-5zM3 3h3v3h-3zM17 3h3v3h-3zM10 6v2h1v-2zM12 6v2h1v-2zM1 9h1v1h-1zM3 9h5v1h-1v1h-2v-1h-1v1h-1v1h1v2h-2v-2h-1v-1h1v-1h1zM4 11h1v1h-1zM7 11h2v1h1v1h1v1h-1v1h-1v-1h-2v-1h1v-1h-1zM17 12h1v1h-1zM5 13h1v1h-1zM12 13h1v1h2v-1h2v1h2v1h-4v2h-1v1h1v2h-1v-1h-1v-2h-1v-1h1v-1h-1zM1 15h7v7h-7zM10 15h2v1h-1v1h1v1h-2v1h3v1h-1v1h-1v-1h-2v-4h1zM2 16v5h5v-5zM16 16h4v1h-2v1h2v1h-1v1h1v1h-2v1h-1v-2h1v-1h-1v1h-1v-2h1v-1h-1zM21 16h1v2h-1zM3 17h3v3h-3zM15 17h1v1h-1zM9 21h2v1h-2zM12 21h1v1h-1zM20 21h1v1h-1z"/></svg>